# xmcd
#
# Track frame offsets: 
#        150
#        13797
#        25292
#        42200
#        57130
#        68985
#        84842
#        95812
#        110985
#        123722
#        136870
#        153912
#        169342
#
# Disc length: 2518 seconds
#
# Revision: 9
# Processed by: cddbd v1.5.2PL0 Copyright (c) Steve Scherf et al.
# Submitted via: ExactAudioCopyFreeDBPlugin 1.0
#
DISCID=b109d40d
DTITLE=Dwight Yoakam - A Long Way Home
DYEAR=1998
DGENRE=Country
TTITLE0=Same Fool
TTITLE1=The Curse
TTITLE2=Things Change
TTITLE3=Yet To Succeed
TTITLE4=I Wouldn't Put It Past Me
TTITLE5=These Arms
TTITLE6=That's Okay
TTITLE7=Only Want You More
TTITLE8=I'll Just Take These
TTITLE9=A Long Way Home
TTITLE10=Listen
TTITLE11=Traveler's Lantern
TTITLE12=Maybe You Like It, Maybe You Don't
EXTD=
EXTT0=
EXTT1=
EXTT2=
EXTT3=
EXTT4=
EXTT5=
EXTT6=
EXTT7=
EXTT8=
EXTT9=
EXTT10=
EXTT11=
EXTT12=
PLAYORDER=
